<?xml version="1.0" standalone="no"?>
<!DOCTYPE svg PUBLIC "-//W3C//DTD SVG 20010904//EN"
 "http://www.w3.org/TR/2001/REC-SVG-20010904/DTD/svg10.dtd">
<svg version="1.0" xmlns="http://www.w3.org/2000/svg"
 width="70.000000pt" height="85.000000pt" viewBox="0 0 70.000000 85.000000"
 preserveAspectRatio="xMidYMid meet">
<metadata>
Created by potrace 1.16, written by Peter Selinger 2001-2019
</metadata>
<g transform="translate(0.000000,85.000000) scale(0.100000,-0.100000)"
fill="#000000" stroke="none">
<path fill="#ebdbe4" stroke="none" d="M459 784 c65 -5 85 -4 92 7 7 11 9 11
9 -3 0 -9 18 -59 40 -109 22 -51 40 -94 40 -96 0 -2 -41 -3 -91 -3 -88 0 -91
1 -116 30 -23 28 -30 30 -92 30 -62 0 -69 -2 -79 -25 -9 -20 -8 -26 5 -33 11
-6 12 -11 4 -16 -6 -4 -11 -2 -11 3 0 7 -38 11 -105 11 -58 0 -105 1 -105 3 0
17 34 97 42 97 5 0 7 4 4 8 -7 13 16 82 25 76 5 -3 14 5 21 16 12 20 19 21
123 16 61 -3 148 -9 194 -12z"/>
<path fill="#ebdbe4" stroke="none" d="M34 574 c3 -8 2 -12 -4 -9 -6 3 -10 10
-10 16 0 14 7 11 14 -7z"/>
<path fill="#ebdbe4" stroke="none" d="M430 570 c8 -5 11 -10 5 -10 -5 0 -3
-5 5 -10 8 -6 44 -9 80 -8 59 3 66 1 75 -19 5 -12 16 -24 25 -27 8 -2 -31 -4
-86 -5 -94 -1 -102 1 -107 19 -4 16 -14 20 -49 20 -23 0 -54 3 -68 6 -20 4
-22 3 -10 -5 12 -9 11 -11 -8 -11 -12 0 -25 -7 -28 -15 -5 -12 -24 -15 -88
-15 -80 0 -82 1 -84 25 -2 24 0 25 67 25 39 0 82 5 98 12 15 6 55 15 88 18 33
4 62 8 65 8 3 1 12 -3 20 -8z"/>
<path fill="#ebdbe4" stroke="none" d="M618 524 c-3 -14 -5 -12 -10 9 -3 19
-2 25 4 19 6 -6 8 -18 6 -28z"/>
<path fill="#ebdbe4" stroke="none" d="M67 498 c-3 -8 -6 -5 -6 6 -1 11 2 17
5 13 3 -3 4 -12 1 -19z"/>
<path fill="#ebdbe4" stroke="none" d="M665 491 c-6 -5 -25 10 -25 20 0 5 6 4
14 -3 8 -7 12 -15 11 -17z"/>
<path fill="#ebdbe4" stroke="none" d="M372 491 c27 -2 39 -34 27 -70 -10 -28
-15 -31 -54 -31 -40 0 -43 2 -50 33 -15 67 -14 72 25 71 19 -1 43 -2 52 -3z"/>
<path fill="#ebdbe4" stroke="none" d="M60 476 c0 -3 -4 -8 -10 -11 -5 -3 -10
-1 -10 4 0 6 5 11 10 11 6 0 10 -2 10 -4z"/>
<path fill="#ebdbe4" stroke="none" d="M631 362 c-9 -57 -20 -100 -25 -95 -4
4 -5 -10 -1 -31 6 -27 4 -37 -3 -32 -7 4 -9 -6 -6 -31 4 -25 3 -34 -4 -25 -7
10 -11 2 -16 -28 -3 -23 -4 -45 -1 -51 4 -5 -25 -9 -69 -9 -56 0 -74 3 -71 13
13 35 21 164 13 187 -10 24 -11 24 -18 5 -7 -17 -9 -17 -9 -2 -1 15 -12 17
-88 17 l-86 0 6 -110 7 -110 -69 0 c-47 0 -68 4 -69 13 0 6 -5 30 -10 52 -6
22 -16 87 -22 145 -9 71 -15 99 -21 85 -6 -16 -8 -13 -8 15 -1 19 -4 44 -7 56
-5 18 0 21 48 24 29 2 78 4 108 4 l55 1 13 -43 c8 -23 20 -42 28 -42 8 0 22
-5 32 -11 27 -17 66 12 80 59 l11 37 106 -1 c65 -1 105 3 105 9 0 6 2 8 4 6 2
-2 -4 -50 -13 -107z"/>
<path fill="#ebdbe4" stroke="none" d="M77 268 c-3 -7 -5 -2 -5 12 0 14 2 19
5 13 2 -7 2 -19 0 -25z"/>
<path fill="#ebdbe4" stroke="none" d="M427 198 c-3 -7 -5 -2 -5 12 0 14 2 19
5 13 2 -7 2 -19 0 -25z"/>
<path fill="#ebdbe4" stroke="none" d="M87 188 c-3 -7 -5 -2 -5 12 0 14 2 19
5 13 2 -7 2 -19 0 -25z"/>
<path fill="#ebdbe4" stroke="none" d="M277 138 c-3 -7 -5 -2 -5 12 0 14 2 19
5 13 2 -7 2 -19 0 -25z"/>
<path fill="#ebdbe4" stroke="none" d="M97 108 c-3 -7 -5 -2 -5 12 0 14 2 19
5 13 2 -7 2 -19 0 -25z"/>
<path fill="#ebdbe4" stroke="none" d="M397 118 c-3 -8 -6 -5 -6 6 -1 11 2 17
5 13 3 -3 4 -12 1 -19z"/>
<path fill="#ebdbe4" stroke="none" d="M417 73 c-3 -10 -5 -4 -5 12 0 17 2 24
5 18 2 -7 2 -21 0 -30z"/>
<path fill="#ebdbe4" stroke="none" d="M587 88 c-3 -8 -6 -5 -6 6 -1 11 2 17
5 13 3 -3 4 -12 1 -19z"/>
<path fill="#ebdbe4" stroke="none" d="M77 78 c-3 -8 -6 -5 -6 6 -1 11 2 17 5
13 3 -3 4 -12 1 -19z"/>
<path fill="#000000" stroke="none" d="M298 293 c7 -3 16 -2 19 1 4 3 -2 6
-13 5 -11 0 -14 -3 -6 -6z"/>
</g>
</svg>
