<?xml version="1.0" standalone="no"?>
<!DOCTYPE svg PUBLIC "-//W3C//DTD SVG 20010904//EN"
 "http://www.w3.org/TR/2001/REC-SVG-20010904/DTD/svg10.dtd">
<svg version="1.0" xmlns="http://www.w3.org/2000/svg"
 width="36.000000pt" height="44.000000pt" viewBox="0 0 36.000000 44.000000"
 preserveAspectRatio="xMidYMid meet">
<metadata>
Created by potrace 1.16, written by Peter Selinger 2001-2019
</metadata>
<g transform="translate(0.000000,44.000000) scale(0.100000,-0.100000)"
fill="#000000" stroke="none">
<path fill="#ebdbe4" d="M180 400 c-109 0 -109 0 -123 -27 -8 -16 -18 -38 -21 -50 -7 -22 -5
-23 42 -23 32 0 54 5 62 15 7 8 25 15 40 15 15 0 33 -7 40 -15 8 -10 30 -15
62 -15 47 0 49 1 42 23 -3 12 -13 34 -21 50 -14 27 -14 27 -123 27z"/>
<path fill="#ebdbe4" d="M180 300 c-21 0 -42 -4 -45 -10 -3 -5 -26 -10 -51 -10 -24 0 -44 -4
-44 -10 0 -5 22 -10 49 -10 28 0 53 5 56 10 3 6 19 10 35 10 16 0 32 -4 35
-10 3 -5 28 -10 56 -10 27 0 49 5 49 10 0 6 -20 10 -44 10 -25 0 -48 5 -51 10
-3 6 -24 10 -45 10z"/>
<path fill="#ebdbe4" d="M180 260 c-25 0 -30 -4 -30 -25 0 -21 5 -25 30 -25 25 0 30 4 30 25
0 21 -5 25 -30 25z"/>
<path fill="#ebdbe4" d="M84 240 c-30 0 -54 -3 -54 -7 0 -4 7 -49 17 -100 l16 -93 39 0 38 0
-2 57 -3 58 45 0 45 0 -3 -57 -2 -58 38 0 39 0 16 93 c10 51 17 96 17 100 0 4
-24 7 -54 7 -49 0 -55 -2 -58 -22 -2 -18 -11 -24 -35 -26 -28 -3 -33 1 -39 22
-6 24 -11 26 -60 26z"/>
</g>
</svg>
