<?xml version="1.0" standalone="no"?>
<!DOCTYPE svg PUBLIC "-//W3C//DTD SVG 20010904//EN"
 "http://www.w3.org/TR/2001/REC-SVG-20010904/DTD/svg10.dtd">
<svg version="1.0" xmlns="http://www.w3.org/2000/svg"
 width="100.000000pt" height="100.000000pt" viewBox="0 0 100.000000 100.000000"
 preserveAspectRatio="xMidYMid meet">
<metadata>
Created by potrace 1.16, written by Peter Selinger 2001-2019
</metadata>
<g transform="translate(0.000000,100.000000) scale(0.100000,-0.100000)"
fill="#000000" stroke="none">
<path fill="#d4921c" d="M796 979 c-50 -1 -120 -5 -156 -9 -36 -4 -132 -13 -215 -19 -82 -7
-177 -17 -211 -22 -33 -5 -77 -9 -98 -9 l-37 0 -21 -11 -21 -11 7 -67 c3 -36
16 -136 28 -221 l21 -155 11 -7 11 -8 97 0 97 0 64 -127 c36 -71 84 -164 106
-207 22 -44 42 -84 44 -90 l4 -11 6 6 6 5 -15 55 c-9 29 -41 123 -70 207 -30
84 -54 155 -54 157 0 3 119 5 265 5 l266 0 5 15 6 15 -8 234 -9 234 -19 21
-19 21 -91 -1z m-499 -229 c7 0 22 -9 34 -21 l20 -20 -3 -27 -3 -26 -26 -15
-27 -15 -26 17 -26 17 0 30 0 29 22 15 c12 9 28 16 35 16z m200 0 c7 0 22 -9
34 -21 l20 -20 -3 -27 -3 -26 -26 -15 -27 -15 -26 17 -26 17 0 30 0 29 22 15
c12 9 28 16 35 16z m200 0 c7 0 22 -9 34 -21 l20 -20 -3 -27 -3 -26 -26 -15
-27 -15 -26 17 -26 17 0 30 0 29 22 15 c12 9 28 16 35 16z"/>
</g>
</svg>
