<?xml version="1.0" standalone="no"?>
<!DOCTYPE svg PUBLIC "-//W3C//DTD SVG 20010904//EN"
 "http://www.w3.org/TR/2001/REC-SVG-20010904/DTD/svg10.dtd">
<svg version="1.0" xmlns="http://www.w3.org/2000/svg"
 width="55.000000pt" height="53.000000pt" viewBox="0 0 55.000000 53.000000"
 preserveAspectRatio="xMidYMid meet">
<metadata>
Created by potrace 1.16, written by Peter Selinger 2001-2019
</metadata>
<g transform="translate(0.000000,53.000000) scale(0.100000,-0.100000)"
fill="#000000" stroke="none">
<path fill="#ff5050" d="M271 500 c-3 0 -58 -52 -121 -115 l-115 -115 67 -67 68 -68 17 18 17
17 -49 50 -49 50 99 99 98 100 -13 15 c-7 9 -15 16 -19 16z"/>
<path fill="#ff5050" d="M271 400 c-4 0 -36 -29 -71 -65 l-65 -65 43 -42 42 -42 17 17 17 17
-24 25 -24 25 49 50 48 49 -13 16 c-7 8 -15 15 -19 15z"/>
<path fill="#ff5050" d="M379 400 c-4 0 -12 -7 -19 -15 l-13 -16 49 -50 48 -49 -99 -100 -99
-100 17 -17 17 -18 117 118 118 117 -65 65 c-35 36 -67 65 -71 65z"/>
<path fill="#ff5050" d="M329 350 c-4 0 -12 -7 -19 -15 l-13 -16 23 -24 24 -25 -49 -50 -49
-50 17 -17 17 -18 67 68 67 67 -39 40 c-21 22 -42 40 -46 40z"/>
<path fill="#ff5050" d="M275 310 c-7 0 -20 -9 -30 -20 l-18 -20 18 -20 c10 -11 23 -20 30
-20 7 0 20 9 30 20 l18 20 -18 20 c-10 11 -23 20 -30 20z"/>
</g>
</svg>
