<?xml version="1.0" standalone="no"?>
<!DOCTYPE svg PUBLIC "-//W3C//DTD SVG 20010904//EN"
 "http://www.w3.org/TR/2001/REC-SVG-20010904/DTD/svg10.dtd">
<svg version="1.0" xmlns="http://www.w3.org/2000/svg"
 width="16.000000pt" height="18.000000pt" viewBox="0 0 16.000000 18.000000"
 preserveAspectRatio="xMidYMid meet">
<metadata>
Created by potrace 1.16, written by Peter Selinger 2001-2019
</metadata>
<g transform="translate(0.000000,18.000000) scale(0.100000,-0.100000)"
fill="#ff6666" stroke="none">
<path d="M34 160 l-6 0 5 -15 6 -14 -9 -6 -10 -6 0 -50 0 -49 9 0 c5 0 11 7
15 15 l5 15 -9 0 -10 0 0 28 0 27 19 -25 19 -24 -9 -18 -10 -18 10 0 c5 0 12
6 15 13 l6 12 6 -12 c3 -7 10 -13 15 -13 l10 0 -10 18 -9 18 19 24 19 25 0
-27 0 -28 -10 0 -9 0 5 -15 c4 -8 10 -15 15 -15 l9 0 0 49 0 50 -10 6 -9 6 6
14 5 15 -6 0 c-3 0 -15 -6 -26 -12 l-20 -13 -20 13 c-11 6 -23 12 -26 12z m46
-32 l25 0 -12 -5 c-7 -2 -19 -2 -25 0 l-13 5 25 0z"/>
</g>
</svg>
