<?xml version="1.0" standalone="no"?>
<!DOCTYPE svg PUBLIC "-//W3C//DTD SVG 20010904//EN"
 "http://www.w3.org/TR/2001/REC-SVG-20010904/DTD/svg10.dtd">
<svg version="1.0" xmlns="http://www.w3.org/2000/svg"
 width="54.000000pt" height="54.000000pt" viewBox="0 0 54.000000 54.000000"
 preserveAspectRatio="xMidYMid meet">
<metadata>
Created by potrace 1.16, written by Peter Selinger 2001-2019
</metadata>
<g transform="translate(0.000000,54.000000) scale(0.100000,-0.100000)"
fill="#000000" stroke="none">
<path fill="#b4f0fb" d="M176 466 c-28 7 -29 6 -22 -22 4 -16 8 -30 9 -31 1 -1 14 -4 30 -8
22 -6 27 -4 27 11 0 11 -4 24 -8 31 -4 6 -20 15 -36 19z"/>
<path fill="#b4f0fb" d="M389 469 c-8 0 -21 -3 -29 -6 -8 -3 -18 -11 -22 -17 -4 -6 -8 -19 -8
-30 0 -15 5 -17 27 -11 16 4 29 7 30 8 1 1 4 14 8 30 5 20 3 27 -6 26z"/>
<path fill="#b4f0fb" d="M275 410 c-25 0 -45 -4 -45 -10 0 -5 -6 -10 -13 -10 -8 0 -21 -8 -30
-18 -11 -12 -17 -36 -17 -67 0 -39 5 -54 27 -77 22 -24 35 -28 78 -28 43 0 56
4 78 28 22 23 27 37 27 78 0 37 -5 56 -18 67 -10 10 -24 17 -30 17 -7 0 -12 5
-12 10 0 6 -20 10 -45 10z m0 -50 c17 0 36 -5 43 -12 7 -7 12 -26 12 -43 0
-17 -5 -36 -12 -43 -7 -7 -26 -12 -43 -12 -17 0 -36 5 -43 12 -7 7 -12 26 -12
43 0 17 5 36 12 43 7 7 26 12 43 12z"/>
<path fill="#b4f0fb" d="M278 338 c-8 2 -21 -4 -28 -12 -7 -9 -10 -23 -6 -31 3 -9 13 -18 22
-22 8 -3 23 2 32 11 13 13 14 20 6 34 -6 9 -18 18 -26 20z"/>
<path fill="#b4f0fb" d="M275 170 c-85 0 -93 -2 -115 -25 l-23 -25 138 0 138 0 -23 25 c-22
23 -30 25 -115 25z"/>
<path fill="#b4f0fb" d="M275 110 l-138 0 23 -25 c22 -23 30 -25 115 -25 85 0 93 2 115 25
l23 25 -138 0z"/>
</g>
</svg>
