<?xml version="1.0" standalone="no"?>
<!DOCTYPE svg PUBLIC "-//W3C//DTD SVG 20010904//EN"
 "http://www.w3.org/TR/2001/REC-SVG-20010904/DTD/svg10.dtd">
<svg version="1.0" xmlns="http://www.w3.org/2000/svg"
 width="62.000000pt" height="102.000000pt" viewBox="0 0 62.000000 102.000000"
 preserveAspectRatio="xMidYMid meet">
<metadata>
Created by potrace 1.16, written by Peter Selinger 2001-2019
</metadata>
<g transform="translate(0.000000,102.000000) scale(0.100000,-0.100000)"
fill="#000000" stroke="none">
<path fill="#b4f0fb" stroke="none" d="M322 1002 c5 -14 201 -126 223 -127 19
-2 20 -9 23 -130 2 -117 1 -130 -18 -150 l-20 -21 40 -39 40 -39 0 -136 0
-135 -142 -105 c-78 -58 -145 -106 -149 -108 -4 -2 -70 40 -145 93 -76 53
-143 99 -150 102 -9 3 -12 46 -12 163 l-1 158 40 28 40 27 -28 23 c-22 18 -25
26 -15 32 10 7 13 38 11 127 l-2 117 119 64 c119 64 139 71 146 56z"/>
<path fill="#000000" stroke="none" d="M187 923 l-107 -56 0 -122 0 -122 110
-77 c61 -43 117 -75 125 -72 22 8 214 136 220 147 4 5 -7 1 -23 -8 -16 -10
-56 -34 -89 -54 -33 -20 -70 -40 -81 -43 -23 -8 -78 17 -149 65 -23 16 -46 29
-52 29 -22 0 -31 42 -31 139 l0 101 40 25 c22 14 42 25 44 25 3 0 30 15 61 34
94 56 47 48 -68 -11z"/>
<path fill="#000000" stroke="none" d="M282 794 c-17 -12 -22 -25 -22 -60 0
-39 4 -47 31 -63 31 -19 32 -19 65 2 28 19 34 28 34 60 0 31 -5 40 -32 57 -40
24 -47 24 -76 4z"/>
<path fill="#000000" stroke="none" d="M77 543 c-31 -22 -37 -32 -37 -63 0
-35 4 -41 75 -89 l75 -52 0 -108 0 -107 61 -43 c34 -23 67 -40 73 -37 30 13
126 98 126 112 0 10 -8 6 -24 -14 -14 -16 -45 -39 -69 -52 l-44 -23 -34 21
c-76 47 -79 53 -79 161 0 109 1 107 -82 156 -44 25 -48 30 -48 64 0 40 20 66
54 72 16 4 17 6 4 16 -11 10 -21 7 -51 -14z"/>
<path fill="#000000" stroke="none" d="M413 505 c-46 -30 -83 -59 -83 -65 0
-5 38 15 85 45 47 30 90 55 96 55 6 0 7 5 4 10 -9 15 -13 13 -102 -45z"/>
<path fill="#000000" stroke="none" d="M42 319 l3 -91 63 -45 c62 -45 62 -45
62 -19 0 16 -6 26 -14 26 -8 0 -31 15 -52 34 -31 28 -37 42 -42 85 -2 29 0 56
6 64 8 10 6 16 -9 25 -19 12 -20 10 -17 -79z"/>
<path fill="#000000" stroke="none" d="M518 371 l-48 -26 0 -93 c0 -103 -5
-99 68 -47 23 17 42 36 42 43 0 7 -15 -1 -32 -17 -53 -50 -68 -43 -68 32 0 34
4 67 8 73 11 17 71 46 82 39 6 -3 10 1 10 9 0 20 -5 19 -62 -13z"/>
</g>
</svg>
