<?xml version="1.0" standalone="no"?>
<!DOCTYPE svg PUBLIC "-//W3C//DTD SVG 20010904//EN"
 "http://www.w3.org/TR/2001/REC-SVG-20010904/DTD/svg10.dtd">
<svg version="1.0" xmlns="http://www.w3.org/2000/svg"
 width="65.000000pt" height="104.000000pt" viewBox="0 0 65.000000 104.000000"
 preserveAspectRatio="xMidYMid meet">
<metadata>
Created by potrace 1.16, written by Peter Selinger 2001-2019
</metadata>
<g transform="translate(0.000000,104.000000) scale(0.100000,-0.100000)"
fill="#000000" stroke="none">
<path fill="#c0dcc0" stroke="none" d="M380 895 c0 -20 -57 -68 -72 -60 -27
16 -58 49 -58 63 0 7 14 27 31 44 l30 31 35 -34 c19 -18 34 -38 34 -44z"/>
<path fill="#c0dcc0" stroke="none" d="M520 776 c0 -8 -10 -22 -22 -30 -18
-13 -53 -16 -176 -16 -157 0 -183 5 -202 40 -11 20 -7 20 195 20 172 0 205 -2
205 -14z"/>
<path fill="#c0dcc0" stroke="none" d="M435 670 c0 -12 -21 -16 -119 -18 -114
-3 -146 4 -146 30 0 5 58 7 133 6 109 -3 132 -6 132 -18z"/>
<path fill="#c0dcc0" stroke="none" d="M484 574 c3 -26 6 -99 6 -162 0 -113 1
-116 35 -178 37 -65 40 -74 27 -74 -4 0 -23 26 -42 58 -19 31 -47 75 -62 96
-27 37 -28 44 -28 158 0 108 -2 119 -17 116 -16 -3 -18 -18 -20 -129 l-2 -126
40 -68 c53 -90 52 -97 -13 -93 l-53 3 -7 95 c-4 52 -10 148 -14 213 -5 102 -8
118 -23 115 -14 -3 -17 -29 -22 -213 -3 -116 -6 -211 -7 -212 -1 -2 -29 -3
-62 -3 -55 0 -75 10 -50 25 5 3 26 39 45 79 l36 72 -3 130 c-3 107 -6 129 -18
129 -12 0 -16 -23 -20 -125 l-5 -125 -55 -93 c-50 -85 -80 -114 -80 -77 0 16
28 61 64 102 18 21 29 119 35 316 1 15 15 17 155 17 l153 0 7 -46z"/>
<path fill="#c0dcc0" stroke="none" d="M550 120 c-1 -42 -12 -44 -205 -48
-212 -4 -251 0 -260 28 -3 11 -4 23 -2 27 3 5 109 8 236 8 199 0 231 -2 231
-15z"/>
</g>
</svg>
