<?xml version="1.0" standalone="no"?>
<!DOCTYPE svg PUBLIC "-//W3C//DTD SVG 20010904//EN"
 "http://www.w3.org/TR/2001/REC-SVG-20010904/DTD/svg10.dtd">
<svg version="1.0" xmlns="http://www.w3.org/2000/svg"
 width="33.000000pt" height="53.000000pt" viewBox="0 0 33.000000 53.000000"
 preserveAspectRatio="xMidYMid meet">
<metadata>
Created by potrace 1.16, written by Peter Selinger 2001-2019
</metadata>
<g transform="translate(0.000000,53.000000) scale(0.100000,-0.100000)"
fill="#000000" stroke="none">
<path fill="#aaffbb" d="M160 500 c-4 0 -15 -9 -25 -20 l-19 -21 22 -22 22 -21 22 21 22 22
-19 21 c-10 11 -21 20 -25 20z"/>
<path fill="#aaffbb" d="M160 410 l-112 0 12 -15 12 -15 88 0 88 0 12 15 12 15 -112 0z"/>
<path fill="#aaffbb" d="M155 360 l-76 0 6 -10 6 -10 64 0 64 0 6 10 6 10 -76 0z"/>
<path fill="#aaffbb" d="M165 330 l-75 0 0 -69 0 -70 -14 -13 c-7 -8 -21 -28 -30 -46 l-17
-32 11 0 10 0 30 47 30 48 0 63 0 62 10 0 10 0 0 -64 0 -63 -26 -47 -26 -46
30 0 29 0 7 46 c3 26 6 75 6 110 l0 64 10 0 10 0 0 -64 c0 -35 3 -84 6 -110
l7 -46 29 0 30 0 -26 46 -26 47 0 63 0 64 10 0 10 0 0 -63 0 -63 30 -47 30
-47 10 0 10 0 -25 50 -25 49 0 66 0 65 -75 0z"/>
<path fill="#aaffbb" d="M160 90 l-132 0 12 -15 12 -15 108 0 108 0 12 15 12 15 -132 0z"/>
</g>
</svg>
